<svg xmlns="http://www.w3.org/2000/svg" viewBox="0 0 512 512" role="img" aria-label="MindPal">
  <defs>
    <linearGradient id="bg" x1="80" y1="40" x2="430" y2="470" gradientUnits="userSpaceOnUse">
      <stop stop-color="#111827"/>
      <stop offset="0.55" stop-color="#312e81"/>
      <stop offset="1" stop-color="#0f172a"/>
    </linearGradient>
    <linearGradient id="orb" x1="130" y1="115" x2="380" y2="385" gradientUnits="userSpaceOnUse">
      <stop stop-color="#60a5fa"/>
      <stop offset="0.5" stop-color="#a78bfa"/>
      <stop offset="1" stop-color="#22d3ee"/>
    </linearGradient>
    <filter id="soft" x="-30%" y="-30%" width="160%" height="160%">
      <feGaussianBlur stdDeviation="18"/>
    </filter>
  </defs>
  <rect width="512" height="512" rx="116" fill="url(#bg)"/>
  <circle cx="256" cy="256" r="154" fill="url(#orb)" opacity="0.22" filter="url(#soft)"/>
  <path d="M151 336V176c0-15 12-27 27-27h18c10 0 19 5 24 14l36 62 36-62c5-9 14-14 24-14h18c15 0 27 12 27 27v160h-55V239l-32 54c-8 13-27 13-35 0l-33-55v98h-55Z" fill="white"/>
  <path d="M379 350c-29 28-72 45-123 45s-94-17-123-45" fill="none" stroke="#bfdbfe" stroke-width="24" stroke-linecap="round"/>
</svg>
